<svg xmlns="http://www.w3.org/2000/svg" version="1.1" xmlns:xlink="http://www.w3.org/1999/xlink" xmlns:svgjs="http://svgjs.dev/svgjs" width="4096" height="2160" preserveAspectRatio="none" viewBox="0 0 4096 2160"><g mask="url(&quot;#SvgjsMask1089&quot;)" fill="none"><path d="M4395.97 1089.01C4073.29 1123.19 3962.75 1884.11 3325.78 1823.41 2688.81 1762.71 2745.03 28.67 2255.59-314.32" stroke="rgba(230, 230, 236, 1)" stroke-width="2"></path><path d="M4509.24 387.39C4118.1 400.85 3810.95 1018.14 3074.54 1013.79 2338.13 1009.44 2114.05-188.25 1639.84-278.7" stroke="rgba(230, 230, 236, 1)" stroke-width="2"></path><path d="M4305.85 904.69C3760.45 930.99 3361.85 1885.53 2349.93 1876.69 1338.01 1867.85 1075.1 32.58 394.01-135.77" stroke="rgba(230, 230, 236, 1)" stroke-width="2"></path><path d="M4862.03 858.1C4563.46 856.34 4280.34 588.1 3698.65 588.1 3116.96 588.1 3145.24 866.77 2535.26 858.1 1925.29 849.43 1750.49-80.77 1371.88-147.08" stroke="rgba(230, 230, 236, 1)" stroke-width="2"></path><path d="M4773.16 880.54C4233.28 911.43 3614.08 1906.35 2863.15 1895.74 2112.22 1885.13 2345.82 286.29 1908.15-22.7" stroke="rgba(230, 230, 236, 1)" stroke-width="2"></path></g><defs><mask id="SvgjsMask1089"><rect width="4096" height="2160" fill="#ffffff"></rect></mask></defs></svg>