<svg xmlns="http://www.w3.org/2000/svg" version="1.1" xmlns:xlink="http://www.w3.org/1999/xlink" xmlns:svgjs="http://svgjs.dev/svgjs" width="4096" height="2160" preserveAspectRatio="none" viewBox="0 0 4096 2160"><g mask="url(&quot;#SvgjsMask1000&quot;)" fill="none"><path d="M4326.86 853.14C3823.52 858.79 3406.7 1428.99 2393.26 1414.74 1379.82 1400.49 1103.84-235.72 459.66-363.84" stroke="rgba(68, 68, 69, 1)" stroke-width="2"></path><path d="M4827.48 762.74C4339.85 779.29 3966.66 1549.67 3037.42 1540.34 2108.19 1531.01 1861.85-95.19 1247.37-237.16" stroke="rgba(68, 68, 69, 1)" stroke-width="2"></path><path d="M4486.85 884.75C3999.74 918.46 3689.35 1873.36 2792.79 1856.75 1896.23 1840.14 1742.78-61.74 1098.73-292.57" stroke="rgba(68, 68, 69, 1)" stroke-width="2"></path><path d="M4470.47 759.49C4169.41 757.76 3883.66 489.49 3296.85 489.49 2710.04 489.49 2725.45 762.99 2123.23 759.49 1521.01 755.99 1304.28-13.83 949.61-52.06" stroke="rgba(68, 68, 69, 1)" stroke-width="2"></path><path d="M4237.75 508.44C3951.16 517.94 3740.64 971.8 3184.24 962.04 2627.85 952.28 2509.51-101.4 2130.74-209.4" stroke="rgba(68, 68, 69, 1)" stroke-width="2"></path></g><defs><mask id="SvgjsMask1000"><rect width="4096" height="2160" fill="#ffffff"></rect></mask></defs></svg>