<svg xmlns="http://www.w3.org/2000/svg" version="1.1" xmlns:xlink="http://www.w3.org/1999/xlink" xmlns:svgjs="http://svgjs.dev/svgjs" width="4096" height="2160" preserveAspectRatio="none" viewBox="0 0 4096 2160"><g mask="url(&quot;#SvgjsMask1789&quot;)" fill="none"><rect width="4096" height="2160" x="0" y="0" fill="url(&quot;#SvgjsLinearGradient1790&quot;)"></rect><path d="M4006 2122L4005 2931" stroke-width="6" stroke="url(&quot;#SvgjsLinearGradient1791&quot;)" stroke-linecap="round" class="Down"></path><path d="M1889 203L1888 -1087" stroke-width="8" stroke="url(&quot;#SvgjsLinearGradient1792&quot;)" stroke-linecap="round" class="Up"></path><path d="M325 961L324 -553" stroke-width="10" stroke="url(&quot;#SvgjsLinearGradient1792&quot;)" stroke-linecap="round" class="Up"></path><path d="M3631 1750L3630 2611" stroke-width="10" stroke="url(&quot;#SvgjsLinearGradient1792&quot;)" stroke-linecap="round" class="Up"></path><path d="M2966 627L2965 1276" stroke-width="8" stroke="url(&quot;#SvgjsLinearGradient1792&quot;)" stroke-linecap="round" class="Up"></path><path d="M2292 1637L2291 455" stroke-width="6" stroke="url(&quot;#SvgjsLinearGradient1792&quot;)" stroke-linecap="round" class="Up"></path><path d="M3989 2104L3988 1290" stroke-width="10" stroke="url(&quot;#SvgjsLinearGradient1792&quot;)" stroke-linecap="round" class="Up"></path><path d="M1209 1191L1208 -261" stroke-width="10" stroke="url(&quot;#SvgjsLinearGradient1791&quot;)" stroke-linecap="round" class="Down"></path><path d="M2383 1564L2382 3072" stroke-width="10" stroke="url(&quot;#SvgjsLinearGradient1791&quot;)" stroke-linecap="round" class="Down"></path><path d="M3680 1366L3679 512" stroke-width="8" stroke="url(&quot;#SvgjsLinearGradient1791&quot;)" stroke-linecap="round" class="Down"></path><path d="M4027 772L4026 1511" stroke-width="6" stroke="url(&quot;#SvgjsLinearGradient1791&quot;)" stroke-linecap="round" class="Down"></path><path d="M3949 1159L3948 -298" stroke-width="10" stroke="url(&quot;#SvgjsLinearGradient1791&quot;)" stroke-linecap="round" class="Down"></path><path d="M3554 1003L3553 -395" stroke-width="6" stroke="url(&quot;#SvgjsLinearGradient1791&quot;)" stroke-linecap="round" class="Down"></path><path d="M2444 1169L2443 -20" stroke-width="10" stroke="url(&quot;#SvgjsLinearGradient1792&quot;)" stroke-linecap="round" class="Up"></path><path d="M2522 241L2521 1382" stroke-width="8" stroke="url(&quot;#SvgjsLinearGradient1792&quot;)" stroke-linecap="round" class="Up"></path><path d="M3184 1120L3183 559" stroke-width="8" stroke="url(&quot;#SvgjsLinearGradient1791&quot;)" stroke-linecap="round" class="Down"></path><path d="M2480 1471L2479 2186" stroke-width="10" stroke="url(&quot;#SvgjsLinearGradient1791&quot;)" stroke-linecap="round" class="Down"></path><path d="M3102 933L3101 1579" stroke-width="8" stroke="url(&quot;#SvgjsLinearGradient1791&quot;)" stroke-linecap="round" class="Down"></path><path d="M2891 368L2890 -304" stroke-width="6" stroke="url(&quot;#SvgjsLinearGradient1791&quot;)" stroke-linecap="round" class="Down"></path><path d="M2589 178L2588 -1348" stroke-width="6" stroke="url(&quot;#SvgjsLinearGradient1792&quot;)" stroke-linecap="round" class="Up"></path><path d="M840 96L839 -912" stroke-width="6" stroke="url(&quot;#SvgjsLinearGradient1792&quot;)" stroke-linecap="round" class="Up"></path><path d="M1183 393L1182 -720" stroke-width="6" stroke="url(&quot;#SvgjsLinearGradient1791&quot;)" stroke-linecap="round" class="Down"></path><path d="M769 701L768 -707" stroke-width="8" stroke="url(&quot;#SvgjsLinearGradient1791&quot;)" stroke-linecap="round" class="Down"></path><path d="M3565 812L3564 2190" stroke-width="6" stroke="url(&quot;#SvgjsLinearGradient1791&quot;)" stroke-linecap="round" class="Down"></path><path d="M1637 304L1636 1527" stroke-width="8" stroke="url(&quot;#SvgjsLinearGradient1791&quot;)" stroke-linecap="round" class="Down"></path><path d="M2065 1852L2064 3212" stroke-width="8" stroke="url(&quot;#SvgjsLinearGradient1792&quot;)" stroke-linecap="round" class="Up"></path><path d="M1379 1862L1378 2789" stroke-width="10" stroke="url(&quot;#SvgjsLinearGradient1792&quot;)" stroke-linecap="round" class="Up"></path><path d="M3885 256L3884 1339" stroke-width="10" stroke="url(&quot;#SvgjsLinearGradient1791&quot;)" stroke-linecap="round" class="Down"></path><path d="M3402 1513L3401 2862" stroke-width="6" stroke="url(&quot;#SvgjsLinearGradient1791&quot;)" stroke-linecap="round" class="Down"></path><path d="M2605 666L2604 -335" stroke-width="6" stroke="url(&quot;#SvgjsLinearGradient1792&quot;)" stroke-linecap="round" class="Up"></path><path d="M2562 1592L2561 808" stroke-width="10" stroke="url(&quot;#SvgjsLinearGradient1791&quot;)" stroke-linecap="round" class="Down"></path><path d="M3675 1157L3674 -68" stroke-width="8" stroke="url(&quot;#SvgjsLinearGradient1791&quot;)" stroke-linecap="round" class="Down"></path><path d="M1993 490L1992 1197" stroke-width="8" stroke="url(&quot;#SvgjsLinearGradient1791&quot;)" stroke-linecap="round" class="Down"></path><path d="M3953 8L3952 -1354" stroke-width="10" stroke="url(&quot;#SvgjsLinearGradient1792&quot;)" stroke-linecap="round" class="Up"></path><path d="M3347 1954L3346 1026" stroke-width="8" stroke="url(&quot;#SvgjsLinearGradient1791&quot;)" stroke-linecap="round" class="Down"></path><path d="M346 1300L345 2624" stroke-width="6" stroke="url(&quot;#SvgjsLinearGradient1792&quot;)" stroke-linecap="round" class="Up"></path><path d="M2197 1704L2196 188" stroke-width="10" stroke="url(&quot;#SvgjsLinearGradient1791&quot;)" stroke-linecap="round" class="Down"></path><path d="M1023 140L1022 1262" stroke-width="10" stroke="url(&quot;#SvgjsLinearGradient1792&quot;)" stroke-linecap="round" class="Up"></path><path d="M731 1175L730 554" stroke-width="8" stroke="url(&quot;#SvgjsLinearGradient1792&quot;)" stroke-linecap="round" class="Up"></path><path d="M1421 14L1420 1252" stroke-width="10" stroke="url(&quot;#SvgjsLinearGradient1791&quot;)" stroke-linecap="round" class="Down"></path><path d="M2762 1790L2761 610" stroke-width="6" stroke="url(&quot;#SvgjsLinearGradient1791&quot;)" stroke-linecap="round" class="Down"></path><path d="M3016 2126L3015 1181" stroke-width="8" stroke="url(&quot;#SvgjsLinearGradient1791&quot;)" stroke-linecap="round" class="Down"></path><path d="M2698 828L2697 1938" stroke-width="6" stroke="url(&quot;#SvgjsLinearGradient1792&quot;)" stroke-linecap="round" class="Up"></path><path d="M30 538L29 1270" stroke-width="6" stroke="url(&quot;#SvgjsLinearGradient1791&quot;)" stroke-linecap="round" class="Down"></path><path d="M2335 658L2334 1888" stroke-width="6" stroke="url(&quot;#SvgjsLinearGradient1792&quot;)" stroke-linecap="round" class="Up"></path><path d="M904 112L903 -874" stroke-width="10" stroke="url(&quot;#SvgjsLinearGradient1792&quot;)" stroke-linecap="round" class="Up"></path><path d="M2336 602L2335 -638" stroke-width="6" stroke="url(&quot;#SvgjsLinearGradient1791&quot;)" stroke-linecap="round" class="Down"></path><path d="M1742 1029L1741 -103" stroke-width="8" stroke="url(&quot;#SvgjsLinearGradient1792&quot;)" stroke-linecap="round" class="Up"></path><path d="M1341 738L1340 1617" stroke-width="8" stroke="url(&quot;#SvgjsLinearGradient1792&quot;)" stroke-linecap="round" class="Up"></path><path d="M810 1443L809 2810" stroke-width="10" stroke="url(&quot;#SvgjsLinearGradient1792&quot;)" stroke-linecap="round" class="Up"></path><path d="M1881 2023L1880 2624" stroke-width="6" stroke="url(&quot;#SvgjsLinearGradient1791&quot;)" stroke-linecap="round" class="Down"></path><path d="M1838 256L1837 -1079" stroke-width="8" stroke="url(&quot;#SvgjsLinearGradient1791&quot;)" stroke-linecap="round" class="Down"></path><path d="M687 975L686 1762" stroke-width="6" stroke="url(&quot;#SvgjsLinearGradient1792&quot;)" stroke-linecap="round" class="Up"></path><path d="M2557 304L2556 -858" stroke-width="10" stroke="url(&quot;#SvgjsLinearGradient1791&quot;)" stroke-linecap="round" class="Down"></path><path d="M2724 552L2723 -1055" stroke-width="6" stroke="url(&quot;#SvgjsLinearGradient1792&quot;)" stroke-linecap="round" class="Up"></path><path d="M2231 1799L2230 2540" stroke-width="6" stroke="url(&quot;#SvgjsLinearGradient1792&quot;)" stroke-linecap="round" class="Up"></path><path d="M418 1297L417 -8" stroke-width="6" stroke="url(&quot;#SvgjsLinearGradient1792&quot;)" stroke-linecap="round" class="Up"></path><path d="M2022 1084L2021 -67" stroke-width="6" stroke="url(&quot;#SvgjsLinearGradient1791&quot;)" stroke-linecap="round" class="Down"></path><path d="M3561 736L3560 117" stroke-width="6" stroke="url(&quot;#SvgjsLinearGradient1792&quot;)" stroke-linecap="round" class="Up"></path><path d="M2491 2149L2490 3705" stroke-width="10" stroke="url(&quot;#SvgjsLinearGradient1791&quot;)" stroke-linecap="round" class="Down"></path><path d="M558 1585L557 2396" stroke-width="6" stroke="url(&quot;#SvgjsLinearGradient1792&quot;)" stroke-linecap="round" class="Up"></path><path d="M3574 1526L3573 2677" stroke-width="10" stroke="url(&quot;#SvgjsLinearGradient1792&quot;)" stroke-linecap="round" class="Up"></path><path d="M1230 1917L1229 3315" stroke-width="8" stroke="url(&quot;#SvgjsLinearGradient1792&quot;)" stroke-linecap="round" class="Up"></path><path d="M2969 1652L2968 1101" stroke-width="8" stroke="url(&quot;#SvgjsLinearGradient1792&quot;)" stroke-linecap="round" class="Up"></path><path d="M2625 643L2624 -278" stroke-width="6" stroke="url(&quot;#SvgjsLinearGradient1791&quot;)" stroke-linecap="round" class="Down"></path><path d="M2907 2058L2906 734" stroke-width="6" stroke="url(&quot;#SvgjsLinearGradient1792&quot;)" stroke-linecap="round" class="Up"></path><path d="M2519 1004L2518 1746" stroke-width="6" stroke="url(&quot;#SvgjsLinearGradient1792&quot;)" stroke-linecap="round" class="Up"></path><path d="M3762 1600L3761 -19" stroke-width="10" stroke="url(&quot;#SvgjsLinearGradient1791&quot;)" stroke-linecap="round" class="Down"></path><path d="M2381 1721L2380 3195" stroke-width="10" stroke="url(&quot;#SvgjsLinearGradient1792&quot;)" stroke-linecap="round" class="Up"></path><path d="M3914 981L3913 292" stroke-width="8" stroke="url(&quot;#SvgjsLinearGradient1791&quot;)" stroke-linecap="round" class="Down"></path><path d="M2686 973L2685 1620" stroke-width="8" stroke="url(&quot;#SvgjsLinearGradient1791&quot;)" stroke-linecap="round" class="Down"></path><path d="M2183 350L2182 944" stroke-width="10" stroke="url(&quot;#SvgjsLinearGradient1791&quot;)" stroke-linecap="round" class="Down"></path><path d="M1070 370L1069 1019" stroke-width="8" stroke="url(&quot;#SvgjsLinearGradient1792&quot;)" stroke-linecap="round" class="Up"></path><path d="M1679 2027L1678 1229" stroke-width="10" stroke="url(&quot;#SvgjsLinearGradient1791&quot;)" stroke-linecap="round" class="Down"></path><path d="M2809 745L2808 1650" stroke-width="6" stroke="url(&quot;#SvgjsLinearGradient1792&quot;)" stroke-linecap="round" class="Up"></path><path d="M834 485L833 1239" stroke-width="6" stroke="url(&quot;#SvgjsLinearGradient1792&quot;)" stroke-linecap="round" class="Up"></path><path d="M2954 1268L2953 665" stroke-width="6" stroke="url(&quot;#SvgjsLinearGradient1791&quot;)" stroke-linecap="round" class="Down"></path><path d="M426 1955L425 3544" stroke-width="6" stroke="url(&quot;#SvgjsLinearGradient1792&quot;)" stroke-linecap="round" class="Up"></path><path d="M3524 281L3523 1224" stroke-width="8" stroke="url(&quot;#SvgjsLinearGradient1792&quot;)" stroke-linecap="round" class="Up"></path><path d="M2324 1607L2323 239" stroke-width="10" stroke="url(&quot;#SvgjsLinearGradient1792&quot;)" stroke-linecap="round" class="Up"></path><path d="M2949 2125L2948 825" stroke-width="6" stroke="url(&quot;#SvgjsLinearGradient1791&quot;)" stroke-linecap="round" class="Down"></path><path d="M3158 1527L3157 299" stroke-width="6" stroke="url(&quot;#SvgjsLinearGradient1792&quot;)" stroke-linecap="round" class="Up"></path><path d="M451 460L450 -197" stroke-width="10" stroke="url(&quot;#SvgjsLinearGradient1791&quot;)" stroke-linecap="round" class="Down"></path><path d="M1403 604L1402 29" stroke-width="8" stroke="url(&quot;#SvgjsLinearGradient1792&quot;)" stroke-linecap="round" class="Up"></path><path d="M1858 1505L1857 666" stroke-width="8" stroke="url(&quot;#SvgjsLinearGradient1791&quot;)" stroke-linecap="round" class="Down"></path><path d="M3474 898L3473 2214" stroke-width="6" stroke="url(&quot;#SvgjsLinearGradient1792&quot;)" stroke-linecap="round" class="Up"></path><path d="M3144 1379L3143 2817" stroke-width="6" stroke="url(&quot;#SvgjsLinearGradient1791&quot;)" stroke-linecap="round" class="Down"></path><path d="M577 1791L576 497" stroke-width="8" stroke="url(&quot;#SvgjsLinearGradient1792&quot;)" stroke-linecap="round" class="Up"></path><path d="M3291 441L3290 -207" stroke-width="8" stroke="url(&quot;#SvgjsLinearGradient1792&quot;)" stroke-linecap="round" class="Up"></path><path d="M1753 1721L1752 643" stroke-width="10" stroke="url(&quot;#SvgjsLinearGradient1791&quot;)" stroke-linecap="round" class="Down"></path><path d="M3224 1532L3223 2540" stroke-width="6" stroke="url(&quot;#SvgjsLinearGradient1791&quot;)" stroke-linecap="round" class="Down"></path><path d="M531 238L530 -778" stroke-width="8" stroke="url(&quot;#SvgjsLinearGradient1791&quot;)" stroke-linecap="round" class="Down"></path><path d="M1785 1059L1784 196" stroke-width="8" stroke="url(&quot;#SvgjsLinearGradient1791&quot;)" stroke-linecap="round" class="Down"></path><path d="M743 1451L742 170" stroke-width="10" stroke="url(&quot;#SvgjsLinearGradient1791&quot;)" stroke-linecap="round" class="Down"></path><path d="M1928 1882L1927 2598" stroke-width="10" stroke="url(&quot;#SvgjsLinearGradient1792&quot;)" stroke-linecap="round" class="Up"></path><path d="M3875 98L3874 -1167" stroke-width="10" stroke="url(&quot;#SvgjsLinearGradient1792&quot;)" stroke-linecap="round" class="Up"></path><path d="M2549 1544L2548 2855" stroke-width="6" stroke="url(&quot;#SvgjsLinearGradient1791&quot;)" stroke-linecap="round" class="Down"></path><path d="M1321 483L1320 2101" stroke-width="8" stroke="url(&quot;#SvgjsLinearGradient1792&quot;)" stroke-linecap="round" class="Up"></path><path d="M3214 88L3213 -1044" stroke-width="8" stroke="url(&quot;#SvgjsLinearGradient1792&quot;)" stroke-linecap="round" class="Up"></path><path d="M2994 1449L2993 2408" stroke-width="6" stroke="url(&quot;#SvgjsLinearGradient1792&quot;)" stroke-linecap="round" class="Up"></path><path d="M3682 830L3681 -615" stroke-width="8" stroke="url(&quot;#SvgjsLinearGradient1792&quot;)" stroke-linecap="round" class="Up"></path><path d="M1913 1957L1912 2572" stroke-width="8" stroke="url(&quot;#SvgjsLinearGradient1792&quot;)" stroke-linecap="round" class="Up"></path><path d="M2791 1150L2790 2361" stroke-width="10" stroke="url(&quot;#SvgjsLinearGradient1791&quot;)" stroke-linecap="round" class="Down"></path></g><defs><mask id="SvgjsMask1789"><rect width="4096" height="2160" fill="#ffffff"></rect></mask><linearGradient x1="0%" y1="50%" x2="100%" y2="50%" gradientUnits="userSpaceOnUse" id="SvgjsLinearGradient1790"><stop stop-color="rgba(0, 0, 60, 1)" offset="0"></stop><stop stop-color="rgba(27, 3, 58, 1)" offset="1"></stop></linearGradient><linearGradient x1="0%" y1="0%" x2="0%" y2="100%" id="SvgjsLinearGradient1791"><stop stop-color="rgba(28, 83, 142, 0)" offset="0"></stop><stop stop-color="#1c538e" offset="1"></stop></linearGradient><linearGradient x1="0%" y1="100%" x2="0%" y2="0%" id="SvgjsLinearGradient1792"><stop stop-color="rgba(28, 83, 142, 0)" offset="0"></stop><stop stop-color="#1c538e" offset="1"></stop></linearGradient></defs></svg>